<svg width="73" height="70" viewBox="0 0 73 70" fill="none" xmlns="http://www.w3.org/2000/svg">
<path d="M15.789 9.83605C17.847 4.40374 24.0073 1.57075 29.5484 3.50836L62.8308 15.1465C68.3719 17.0841 71.1955 23.0586 69.1375 28.4909L57.1729 60.0727C55.1149 65.505 48.9546 68.338 43.4135 66.4003L10.1312 54.7622C4.59009 52.8246 1.76646 46.8501 3.82446 41.4178L15.789 9.83605Z" fill="#9167BA"/>
<path d="M3.72794 28.5847C1.66905 23.1527 4.4922 17.1792 10.0336 15.2424L43.3178 3.60933C48.8592 1.67256 55.0204 4.50598 57.0793 9.93796L69.049 41.5178C71.1079 46.9498 68.2848 52.9233 62.7434 54.8601L29.4592 66.4932C23.9178 68.43 17.7565 65.5965 15.6976 60.1646L3.72794 28.5847Z" fill="#FC6583"/>
<path d="M42.7948 43.0591C42.0539 43.0591 41.3986 42.9397 40.8291 42.7011C40.2646 42.4575 39.8211 42.0896 39.4985 41.5974C39.1759 41.1051 39.0146 40.4787 39.0146 39.718C39.0146 39.0916 39.123 38.5571 39.3397 38.1146C39.5565 37.6671 39.8589 37.3017 40.247 37.0183C40.6351 36.7349 41.0862 36.5187 41.6002 36.3695C42.1194 36.2203 42.6788 36.1234 43.2786 36.0786C43.9288 36.0289 44.4505 35.9693 44.8436 35.8997C45.2418 35.8251 45.529 35.7232 45.7055 35.5939C45.8819 35.4597 45.9701 35.2832 45.9701 35.0644V35.0346C45.9701 34.7363 45.8541 34.5076 45.6223 34.3485C45.3904 34.1894 45.0931 34.1098 44.7302 34.1098C44.332 34.1098 44.0069 34.1968 43.7549 34.3708C43.5079 34.5399 43.3593 34.8009 43.3089 35.1539H39.4683C39.5187 34.4578 39.743 33.8165 40.1411 33.2298C40.5443 32.6382 41.1315 32.1658 41.9027 31.8128C42.6738 31.4549 43.6365 31.2759 44.7907 31.2759C45.6223 31.2759 46.3682 31.3728 47.0285 31.5667C47.6887 31.7557 48.2507 32.0217 48.7144 32.3647C49.1781 32.7028 49.5309 33.1005 49.7729 33.5579C50.0198 34.0104 50.1433 34.5026 50.1433 35.0346V42.8801H46.2422V41.2692H46.1515C45.9197 41.6968 45.6374 42.0423 45.3048 42.3058C44.9771 42.5693 44.6017 42.7608 44.1783 42.8801C43.76 42.9994 43.2988 43.0591 42.7948 43.0591ZM44.1556 40.4638C44.4731 40.4638 44.7705 40.3991 45.0477 40.2699C45.33 40.1406 45.5593 39.9542 45.7357 39.7106C45.9121 39.4669 46.0003 39.1711 46.0003 38.8231V37.8685C45.8894 37.9132 45.771 37.9555 45.645 37.9953C45.524 38.0351 45.393 38.0723 45.2518 38.1071C45.1158 38.1419 44.9696 38.1743 44.8133 38.2041C44.6621 38.2339 44.5034 38.2613 44.337 38.2861C44.0145 38.3358 43.7499 38.4179 43.5432 38.5322C43.3416 38.6416 43.1904 38.7783 43.0896 38.9424C42.9938 39.1015 42.946 39.2805 42.946 39.4794C42.946 39.7976 43.0594 40.0412 43.2862 40.2102C43.513 40.3793 43.8028 40.4638 44.1556 40.4638Z" fill="white"/>
<path d="M26.5762 42.8802H22.04L27.1508 27.6068H32.8965L38.0072 42.8802H33.4711L30.0841 31.813H29.9632L26.5762 42.8802ZM25.7294 36.8544H34.2574V39.9568H25.7294V36.8544Z" fill="white"/>
</svg>
