<svg width="20" height="20" viewBox="0 0 20 20" fill="none" xmlns="http://www.w3.org/2000/svg">
<g clip-path="url(#clip0_142_213)">
<path d="M11.1782 10L19.7557 1.42251C19.9075 1.26535 19.9915 1.05484 19.9896 0.836346C19.9877 0.617849 19.9 0.408838 19.7455 0.254332C19.591 0.0998249 19.382 0.0121841 19.1635 0.0102854C18.945 0.00838673 18.7345 0.0923821 18.5773 0.24418L9.99982 8.82168L1.42232 0.24418C1.26515 0.0923821 1.05465 0.00838673 0.836154 0.0102854C0.617657 0.0121841 0.408647 0.0998249 0.25414 0.254332C0.0996331 0.408838 0.0119924 0.617849 0.0100937 0.836346C0.008195 1.05484 0.0921903 1.26535 0.243989 1.42251L8.82149 10L0.243989 18.5775C0.0877629 18.7338 0 18.9457 0 19.1667C0 19.3876 0.0877629 19.5996 0.243989 19.7558C0.400262 19.9121 0.612185 19.9998 0.833155 19.9998C1.05413 19.9998 1.26605 19.9121 1.42232 19.7558L9.99982 11.1783L18.5773 19.7558C18.7336 19.9121 18.9455 19.9998 19.1665 19.9998C19.3875 19.9998 19.5994 19.9121 19.7557 19.7558C19.9119 19.5996 19.9996 19.3876 19.9996 19.1667C19.9996 18.9457 19.9119 18.7338 19.7557 18.5775L11.1782 10Z" fill="#1F1D21"/>
</g>
<defs>
<clipPath id="clip0_142_213">
<rect width="20" height="20" fill="white"/>
</clipPath>
</defs>
</svg>
