<svg width="51" height="60" viewBox="0 0 51 60" fill="none" xmlns="http://www.w3.org/2000/svg">
<path d="M41.9525 5.35182L26.29 0.129323C25.7772 -0.04148 25.2228 -0.04148 24.71 0.129323L9.04501 5.35182C6.55523 6.17945 4.38955 7.77058 2.8556 9.89917C1.32165 12.0278 0.497422 14.5856 0.500006 17.2093V30.0018C0.500006 48.9093 23.5 59.3518 24.485 59.7868C24.8046 59.9288 25.1503 60.0021 25.5 60.0021C25.8497 60.0021 26.1955 59.9288 26.515 59.7868C27.5 59.3518 50.5 48.9093 50.5 30.0018V17.2093C50.5024 14.5853 49.6778 12.0272 48.1434 9.8986C46.609 7.76997 44.4427 6.17903 41.9525 5.35182ZM25.5 47.5018C25.0056 47.5018 24.5222 47.3552 24.1111 47.0805C23.7 46.8058 23.3795 46.4153 23.1903 45.9585C23.0011 45.5017 22.9516 44.9991 23.048 44.5141C23.1445 44.0291 23.3826 43.5837 23.7322 43.2341C24.0819 42.8844 24.5273 42.6463 25.0123 42.5499C25.4972 42.4534 25.9999 42.5029 26.4567 42.6921C26.9135 42.8813 27.304 43.2018 27.5787 43.6129C27.8534 44.024 28 44.5074 28 45.0018C28 45.6649 27.7366 46.3008 27.2678 46.7696C26.7989 47.2384 26.163 47.5018 25.5 47.5018ZM28 35.0018C28 35.6649 27.7366 36.3008 27.2678 36.7696C26.7989 37.2384 26.163 37.5018 25.5 37.5018C24.837 37.5018 24.2011 37.2384 23.7322 36.7696C23.2634 36.3008 23 35.6649 23 35.0018V15.0018C23 14.3388 23.2634 13.7029 23.7322 13.2341C24.2011 12.7652 24.837 12.5018 25.5 12.5018C26.163 12.5018 26.7989 12.7652 27.2678 13.2341C27.7366 13.7029 28 14.3388 28 15.0018V35.0018Z" fill="#FC6583"/>
</svg>
