<svg width="120" height="40" viewBox="0 0 120 40" fill="none" xmlns="http://www.w3.org/2000/svg">
<path d="M111.73 27.6057V16.2147H114.049V17.6062H114.154C114.257 17.3833 114.406 17.1567 114.601 16.9266C114.799 16.6929 115.057 16.4987 115.374 16.3441C115.694 16.1859 116.091 16.1068 116.566 16.1068C117.184 16.1068 117.755 16.265 118.277 16.5814C118.8 16.8943 119.218 17.3671 119.53 17.9999C119.843 18.6292 120 19.4184 120 20.3677C120 21.2917 119.847 22.072 119.542 22.7084C119.24 23.3413 118.828 23.8213 118.305 24.1485C117.786 24.4721 117.205 24.6339 116.56 24.6339C116.104 24.6339 115.716 24.5602 115.396 24.4128C115.079 24.2653 114.82 24.0802 114.617 23.8572C114.415 23.6307 114.26 23.4024 114.154 23.1723H114.082V27.6057H111.73ZM114.032 20.3569C114.032 20.8495 114.102 21.2792 114.242 21.6459C114.382 22.0127 114.584 22.2985 114.849 22.5035C115.114 22.7048 115.436 22.8055 115.815 22.8055C116.198 22.8055 116.522 22.703 116.787 22.4981C117.052 22.2895 117.252 22.0019 117.389 21.6351C117.528 21.2648 117.598 20.8387 117.598 20.3569C117.598 19.8787 117.53 19.458 117.394 19.0948C117.258 18.7316 117.057 18.4476 116.792 18.2426C116.527 18.0377 116.202 17.9352 115.815 17.9352C115.432 17.9352 115.109 18.0341 114.844 18.2318C114.582 18.4296 114.382 18.7101 114.242 19.0732C114.102 19.4364 114.032 19.8643 114.032 20.3569Z" fill="#FC6583"/>
<path d="M105.13 24.6555C104.589 24.6555 104.107 24.5638 103.684 24.3804C103.261 24.1934 102.926 23.9184 102.679 23.5552C102.437 23.1884 102.315 22.7318 102.315 22.1853C102.315 21.725 102.402 21.3385 102.575 21.0257C102.747 20.7128 102.983 20.4611 103.281 20.2706C103.579 20.08 103.918 19.9362 104.297 19.8391C104.68 19.742 105.081 19.6737 105.5 19.6341C105.994 19.5838 106.391 19.5371 106.693 19.4939C106.995 19.4472 107.214 19.3789 107.35 19.289C107.486 19.1991 107.554 19.066 107.554 18.8898V18.8575C107.554 18.5159 107.444 18.2516 107.223 18.0646C107.006 17.8777 106.696 17.7842 106.295 17.7842C105.872 17.7842 105.535 17.8759 105.285 18.0593C105.035 18.239 104.869 18.4656 104.788 18.7388L102.613 18.5662C102.724 18.0628 102.941 17.6278 103.265 17.261C103.588 16.8907 104.006 16.6066 104.518 16.4088C105.033 16.2075 105.629 16.1068 106.306 16.1068C106.777 16.1068 107.228 16.1607 107.659 16.2686C108.093 16.3765 108.478 16.5437 108.813 16.7702C109.151 16.9967 109.418 17.288 109.613 17.644C109.808 17.9963 109.906 18.4188 109.906 18.9114V24.4991H107.675V23.3503H107.609C107.473 23.6091 107.291 23.8375 107.063 24.0352C106.834 24.2294 106.56 24.3822 106.24 24.4937C105.92 24.6015 105.55 24.6555 105.13 24.6555ZM105.804 23.0698C106.15 23.0698 106.455 23.0033 106.72 22.8702C106.985 22.7336 107.193 22.5502 107.344 22.3201C107.495 22.09 107.571 21.8293 107.571 21.538V20.6589C107.497 20.7057 107.396 20.7488 107.267 20.7884C107.142 20.8243 107 20.8585 106.842 20.8908C106.684 20.9196 106.525 20.9466 106.367 20.9717C106.209 20.9933 106.065 21.0131 105.936 21.0311C105.66 21.0706 105.419 21.1335 105.213 21.2198C105.007 21.3061 104.847 21.423 104.733 21.5704C104.619 21.7142 104.562 21.894 104.562 22.1098C104.562 22.4226 104.678 22.6617 104.91 22.8271C105.145 22.9889 105.443 23.0698 105.804 23.0698Z" fill="#FC6583"/>
<path d="M95.3938 19.7097V24.4991H93.0421V16.2147H95.2834V17.6763H95.3828C95.5705 17.1945 95.8851 16.8134 96.3268 16.5329C96.7684 16.2488 97.3039 16.1068 97.9332 16.1068C98.5221 16.1068 99.0355 16.2327 99.4734 16.4844C99.9114 16.7361 100.252 17.0956 100.495 17.5631C100.738 18.0269 100.859 18.5806 100.859 19.2242V24.4991H98.5073V19.6341C98.511 19.1272 98.3785 18.7316 98.1099 18.4476C97.8412 18.1599 97.4713 18.0161 97.0003 18.0161C96.6838 18.0161 96.4041 18.0826 96.1612 18.2157C95.9219 18.3487 95.7342 18.5429 95.5981 18.7982C95.4656 19.0499 95.3975 19.3537 95.3938 19.7097Z" fill="#FC6583"/>
<path d="M89.0328 16.6299C88.9887 16.1948 88.7991 15.8568 88.4642 15.6159C88.1293 15.375 87.6748 15.2546 87.1007 15.2546C86.7106 15.2546 86.3812 15.3085 86.1125 15.4164C85.8439 15.5206 85.6378 15.6663 85.4942 15.8532C85.3544 16.0402 85.2845 16.2524 85.2845 16.4897C85.2771 16.6874 85.3194 16.86 85.4114 17.0074C85.5071 17.1549 85.6378 17.2825 85.8034 17.3904C85.969 17.4947 86.1604 17.5863 86.3775 17.6654C86.5946 17.741 86.8265 17.8057 87.0731 17.8596L88.0888 18.0969C88.582 18.2048 89.0347 18.3486 89.4469 18.5284C89.8591 18.7082 90.216 18.9293 90.5178 19.1918C90.8196 19.4543 91.0533 19.7635 91.2189 20.1195C91.3882 20.4755 91.4747 20.8836 91.4784 21.3438C91.4747 22.0198 91.298 22.6059 90.9484 23.1021C90.6025 23.5947 90.102 23.9776 89.4469 24.2509C88.7954 24.5206 88.0097 24.6554 87.0896 24.6554C86.1769 24.6554 85.382 24.5188 84.7048 24.2455C84.0313 23.9722 83.505 23.5677 83.126 23.032C82.7506 22.4926 82.5537 21.8256 82.5353 21.031H84.8483C84.8741 21.4013 84.9827 21.7106 85.174 21.9587C85.3691 22.2032 85.6286 22.3883 85.9524 22.5142C86.28 22.6364 86.6498 22.6976 87.062 22.6976C87.4669 22.6976 87.8183 22.64 88.1164 22.525C88.4182 22.4099 88.6519 22.2499 88.8175 22.045C88.9831 21.84 89.066 21.6045 89.066 21.3384C89.066 21.0903 88.9905 20.8818 88.8396 20.7128C88.6924 20.5438 88.4753 20.3999 88.1882 20.2813C87.9048 20.1626 87.557 20.0548 87.1448 19.9577L85.9138 19.6556C84.9606 19.4291 84.208 19.0749 83.6559 18.5931C83.1039 18.1113 82.8297 17.4623 82.8334 16.6461C82.8297 15.9773 83.0119 15.393 83.3799 14.8932C83.7516 14.3934 84.2613 14.0033 84.9091 13.7228C85.5568 13.4424 86.2929 13.3021 87.1172 13.3021C87.9563 13.3021 88.6887 13.4424 89.3144 13.7228C89.9437 14.0033 90.4332 14.3934 90.7828 14.8932C91.1324 15.393 91.3128 15.9719 91.3238 16.6299H89.0328Z" fill="#FC6583"/>
<path d="M78.8492 15.7193V17.4452H73.7428V15.7193H78.8492ZM74.9021 13.7345H77.2538V21.458C77.2538 21.6701 77.2869 21.8355 77.3532 21.9542C77.4194 22.0692 77.5114 22.1501 77.6292 22.1969C77.7506 22.2436 77.8905 22.267 78.0487 22.267C78.1591 22.267 78.2696 22.258 78.38 22.24C78.4904 22.2184 78.575 22.2023 78.6339 22.1915L79.0038 23.9012C78.886 23.9372 78.7204 23.9785 78.5069 24.0253C78.2935 24.0756 78.034 24.1062 77.7285 24.1169C77.1618 24.1385 76.6649 24.0648 76.238 23.8958C75.8148 23.7268 75.4854 23.4643 75.2499 23.1084C75.0143 22.7524 74.8984 22.3029 74.9021 21.76V13.7345Z" fill="#9167BA"/>
<path d="M67.0203 19.2142V24.0036H64.6686V15.7192H66.9099V17.1808H67.0092C67.1969 16.699 67.5116 16.3179 67.9532 16.0374C68.3949 15.7534 68.9304 15.6113 69.5597 15.6113C70.1485 15.6113 70.6619 15.7372 71.0999 15.9889C71.5378 16.2406 71.8783 16.6001 72.1212 17.0676C72.3641 17.5314 72.4855 18.0851 72.4855 18.7288V24.0036H70.1338V19.1387C70.1375 18.6317 70.005 18.2362 69.7363 17.9521C69.4677 17.6644 69.0978 17.5206 68.6267 17.5206C68.3102 17.5206 68.0305 17.5871 67.7876 17.7202C67.5484 17.8532 67.3607 18.0474 67.2245 18.3027C67.092 18.5544 67.024 18.8582 67.0203 19.2142Z" fill="#9167BA"/>
<path d="M58.9661 24.1654C58.1085 24.1654 57.367 23.9874 56.7413 23.6314C56.1193 23.2719 55.6391 22.7721 55.3005 22.132C54.9619 21.4884 54.7926 20.7423 54.7926 19.8937C54.7926 19.038 54.9619 18.2901 55.3005 17.6501C55.6391 17.0064 56.1193 16.5066 56.7413 16.1507C57.367 15.7911 58.1085 15.6113 58.9661 15.6113C59.8236 15.6113 60.5633 15.7911 61.1853 16.1507C61.8109 16.5066 62.293 17.0064 62.6316 17.6501C62.9702 18.2901 63.1395 19.038 63.1395 19.8937C63.1395 20.7423 62.9702 21.4884 62.6316 22.132C62.293 22.7721 61.8109 23.2719 61.1853 23.6314C60.5633 23.9874 59.8236 24.1654 58.9661 24.1654ZM58.9771 22.3855C59.3672 22.3855 59.6929 22.2777 59.9542 22.0619C60.2155 21.8426 60.4124 21.5442 60.5449 21.1666C60.6811 20.7891 60.7491 20.3594 60.7491 19.8776C60.7491 19.3958 60.6811 18.9661 60.5449 18.5885C60.4124 18.211 60.2155 17.9125 59.9542 17.6932C59.6929 17.4739 59.3672 17.3642 58.9771 17.3642C58.5833 17.3642 58.2521 17.4739 57.9834 17.6932C57.7184 17.9125 57.5179 18.211 57.3817 18.5885C57.2492 18.9661 57.183 19.3958 57.183 19.8776C57.183 20.3594 57.2492 20.7891 57.3817 21.1666C57.5179 21.5442 57.7184 21.8426 57.9834 22.0619C58.2521 22.2777 58.5833 22.3855 58.9771 22.3855Z" fill="#9167BA"/>
<path d="M46.7079 24.0035V12.9576H54.1936V14.8831H49.0982V17.5151H53.6968V19.4406H49.0982V24.0035H46.7079Z" fill="#9167BA"/>
<path d="M9.10886 5.62035C10.2962 2.51632 13.8502 0.89753 17.047 2.00469L36.2483 8.65477C39.4451 9.76193 41.0741 13.1758 39.8868 16.2798L32.9842 34.3257C31.7969 37.4298 28.2429 39.0486 25.0461 37.9414L5.84472 31.2913C2.64792 30.1842 1.01891 26.7703 2.20621 23.6663L9.10886 5.62035Z" fill="#9167BA"/>
<path d="M2.14969 16.3337C0.96238 13.2297 2.59139 9.81585 5.78819 8.70869L24.9895 2.05861C28.1863 0.95145 31.7404 2.57024 32.9277 5.67428L39.8303 23.7202C41.0176 26.8242 39.3886 30.2381 36.1918 31.3452L16.9905 37.9953C13.7937 39.1025 10.2396 37.4837 9.05233 34.3796L2.14969 16.3337Z" fill="#FC6583"/>
<path d="M24.6893 24.6042C24.2618 24.6042 23.8838 24.536 23.5552 24.3996C23.2296 24.2604 22.9737 24.0502 22.7876 23.7689C22.6015 23.4877 22.5084 23.1297 22.5084 22.6951C22.5084 22.3371 22.5709 22.0317 22.696 21.7789C22.821 21.5232 22.9955 21.3144 23.2194 21.1525C23.4433 20.9905 23.7035 20.867 24.0001 20.7817C24.2996 20.6965 24.6224 20.6411 24.9684 20.6155C25.3435 20.5871 25.6445 20.553 25.8713 20.5133C26.101 20.4706 26.2667 20.4124 26.3685 20.3385C26.4703 20.2618 26.5212 20.161 26.5212 20.036V20.0189C26.5212 19.8485 26.4543 19.7178 26.3205 19.6269C26.1868 19.536 26.0152 19.4905 25.8058 19.4905C25.5761 19.4905 25.3886 19.5402 25.2432 19.6397C25.1007 19.7363 25.0149 19.8854 24.9859 20.0871H22.7701C22.7992 19.6894 22.9286 19.3229 23.1583 18.9877C23.3909 18.6496 23.7297 18.3797 24.1746 18.178C24.6195 17.9735 25.1749 17.8712 25.8407 17.8712C26.3205 17.8712 26.7509 17.9266 27.1318 18.0374C27.5127 18.1454 27.8369 18.2974 28.1044 18.4934C28.372 18.6866 28.5755 18.9138 28.7151 19.1752C28.8576 19.4337 28.9288 19.715 28.9288 20.0189V24.5019H26.6782V23.5814H26.6258C26.4921 23.8258 26.3292 24.0232 26.1373 24.1738C25.9483 24.3243 25.7317 24.4337 25.4874 24.5019C25.2461 24.5701 24.98 24.6042 24.6893 24.6042ZM25.4744 23.1212C25.6575 23.1212 25.8291 23.0843 25.989 23.0104C26.1519 22.9366 26.2842 22.83 26.3859 22.6908C26.4877 22.5516 26.5386 22.3826 26.5386 22.1837V21.6383C26.4746 21.6638 26.4063 21.688 26.3336 21.7107C26.2638 21.7334 26.1882 21.7547 26.1068 21.7746C26.0283 21.7945 25.944 21.813 25.8538 21.83C25.7666 21.8471 25.675 21.8627 25.579 21.8769C25.3929 21.9053 25.2403 21.9522 25.1211 22.0175C25.0048 22.08 24.9175 22.1581 24.8594 22.2519C24.8041 22.3428 24.7765 22.4451 24.7765 22.5587C24.7765 22.7405 24.8419 22.8797 24.9728 22.9763C25.1036 23.0729 25.2708 23.1212 25.4744 23.1212Z" fill="white"/>
<path d="M15.3322 24.5019H12.7152L15.6637 15.7747H18.9786L21.9271 24.5019H19.3101L17.356 18.1781H17.2862L15.3322 24.5019ZM14.8437 21.0587H19.7637V22.8315H14.8437V21.0587Z" fill="white"/>
</svg>
