<svg width="208" height="70" viewBox="0 0 208 70" fill="none" xmlns="http://www.w3.org/2000/svg">
<path d="M193.666 48.3121V28.3769H197.685V30.8122H197.867C198.045 30.422 198.304 30.0256 198.642 29.6228C198.986 29.2138 199.433 28.874 199.981 28.6034C200.536 28.3265 201.225 28.1881 202.048 28.1881C203.12 28.1881 204.109 28.465 205.015 29.0187C205.92 29.5662 206.644 30.3937 207.187 31.5012C207.729 32.6024 208 33.9837 208 35.6449C208 37.2621 207.735 38.6276 207.206 39.7414C206.683 40.849 205.968 41.689 205.062 42.2617C204.163 42.828 203.155 43.1112 202.039 43.1112C201.248 43.1112 200.575 42.9822 200.02 42.7242C199.471 42.4662 199.021 42.1421 198.67 41.752C198.32 41.3555 198.052 40.9559 197.867 40.5532H197.742V48.3121H193.666ZM197.656 35.626C197.656 36.4881 197.777 37.2401 198.02 37.882C198.262 38.5238 198.613 39.0241 199.072 39.3828C199.532 39.7352 200.09 39.9113 200.747 39.9113C201.41 39.9113 201.972 39.732 202.431 39.3733C202.89 39.0084 203.238 38.5049 203.474 37.8631C203.716 37.2149 203.838 36.4693 203.838 35.626C203.838 34.7891 203.72 34.0529 203.484 33.4173C203.248 32.7818 202.9 32.2846 202.441 31.926C201.981 31.5673 201.417 31.3879 200.747 31.3879C200.083 31.3879 199.522 31.561 199.063 31.9071C198.61 32.2532 198.262 32.744 198.02 33.3796C197.777 34.0151 197.656 34.7639 197.656 35.626Z" fill="#FC6583"/>
<path d="M182.226 43.1489C181.289 43.1489 180.453 42.9885 179.719 42.6675C178.986 42.3403 178.405 41.8589 177.978 41.2234C177.557 40.5815 177.346 39.7823 177.346 38.8259C177.346 38.0204 177.496 37.3439 177.796 36.7965C178.096 36.249 178.504 35.8085 179.021 35.475C179.537 35.1415 180.124 34.8898 180.781 34.7199C181.445 34.55 182.14 34.4304 182.867 34.3612C183.722 34.2731 184.411 34.1913 184.934 34.1158C185.457 34.034 185.837 33.9144 186.073 33.7571C186.309 33.5998 186.427 33.367 186.427 33.0586V33.002C186.427 32.4042 186.236 31.9417 185.853 31.6145C185.476 31.2872 184.941 31.1236 184.245 31.1236C183.512 31.1236 182.928 31.2841 182.494 31.605C182.06 31.9197 181.773 32.3161 181.633 32.7943L177.863 32.4923C178.054 31.6113 178.431 30.8499 178.992 30.2081C179.553 29.5599 180.277 29.0628 181.164 28.7167C182.057 28.3643 183.091 28.1881 184.264 28.1881C185.081 28.1881 185.862 28.2825 186.609 28.4713C187.361 28.6601 188.028 28.9527 188.609 29.3491C189.195 29.7455 189.658 30.2553 189.996 30.8782C190.334 31.4949 190.503 32.2343 190.503 33.0964V42.8752H186.637V40.8647H186.523C186.287 41.3178 185.971 41.7173 185.575 42.0634C185.18 42.4032 184.705 42.6707 184.15 42.8658C183.595 43.0545 182.953 43.1489 182.226 43.1489ZM183.394 40.3739C183.993 40.3739 184.523 40.2574 184.982 40.0246C185.441 39.7855 185.802 39.4646 186.063 39.0618C186.325 38.6591 186.456 38.2029 186.456 37.6932V36.1546C186.328 36.2364 186.153 36.3119 185.929 36.3812C185.712 36.4441 185.467 36.5039 185.193 36.5605C184.918 36.6108 184.644 36.658 184.37 36.7021C184.095 36.7398 183.847 36.7745 183.623 36.8059C183.145 36.8751 182.727 36.9853 182.37 37.1363C182.013 37.2873 181.735 37.4918 181.537 37.7498C181.34 38.0015 181.241 38.3162 181.241 38.6937C181.241 39.2412 181.442 39.6596 181.844 39.9491C182.252 40.2323 182.768 40.3739 183.394 40.3739Z" fill="#FC6583"/>
<path d="M165.349 34.4934V42.8752H161.273V28.3769H165.158V30.9349H165.33C165.656 30.0916 166.201 29.4246 166.967 28.9338C167.732 28.4367 168.66 28.1881 169.751 28.1881C170.772 28.1881 171.662 28.4084 172.421 28.8488C173.18 29.2893 173.77 29.9186 174.191 30.7366C174.612 31.5484 174.823 32.5175 174.823 33.6439V42.8752H170.746V34.3612C170.753 33.4739 170.523 32.7818 170.057 32.2846C169.592 31.7812 168.951 31.5295 168.134 31.5295C167.585 31.5295 167.101 31.6459 166.68 31.8788C166.265 32.1116 165.94 32.4514 165.704 32.8982C165.474 33.3387 165.356 33.8704 165.349 34.4934Z" fill="#FC6583"/>
<path d="M154.324 29.1036C154.247 28.3422 153.919 27.7507 153.338 27.3291C152.758 26.9075 151.97 26.6967 150.975 26.6967C150.299 26.6967 149.728 26.7911 149.262 26.9799C148.796 27.1624 148.439 27.4172 148.19 27.7444C147.948 28.0717 147.827 28.4429 147.827 28.8582C147.814 29.2043 147.887 29.5064 148.047 29.7644C148.213 30.0224 148.439 30.2458 148.726 30.4345C149.013 30.617 149.345 30.7775 149.721 30.9159C150.098 31.0481 150.5 31.1614 150.927 31.2557L152.688 31.6711C153.542 31.8598 154.327 32.1115 155.042 32.4262C155.756 32.7408 156.375 33.1278 156.898 33.5872C157.421 34.0465 157.826 34.5877 158.113 35.2107C158.407 35.8337 158.557 36.5479 158.563 37.3533C158.557 38.5364 158.25 39.5621 157.644 40.4304C157.045 41.2925 156.177 41.9627 155.042 42.441C153.912 42.9129 152.551 43.1489 150.956 43.1489C149.374 43.1489 147.996 42.9098 146.822 42.4315C145.655 41.9533 144.742 41.2453 144.085 40.3077C143.435 39.3638 143.093 38.1966 143.062 36.8059H147.071C147.115 37.454 147.304 37.9952 147.635 38.4294C147.973 38.8573 148.423 39.1814 148.985 39.4016C149.552 39.6155 150.193 39.7225 150.908 39.7225C151.61 39.7225 152.219 39.6218 152.736 39.4205C153.259 39.2191 153.664 38.9391 153.951 38.5804C154.238 38.2217 154.381 37.8096 154.381 37.3439C154.381 36.9097 154.251 36.5447 153.989 36.249C153.734 35.9532 153.357 35.7015 152.86 35.4938C152.369 35.2862 151.766 35.0974 151.051 34.9275L148.918 34.3989C147.265 34.0025 145.961 33.3827 145.004 32.5394C144.047 31.6962 143.572 30.5604 143.578 29.132C143.572 27.9615 143.888 26.939 144.526 26.0643C145.17 25.1896 146.053 24.5069 147.176 24.016C148.299 23.5252 149.575 23.2798 151.004 23.2798C152.458 23.2798 153.727 23.5252 154.812 24.016C155.903 24.5069 156.751 25.1896 157.357 26.0643C157.963 26.939 158.276 27.9521 158.295 29.1036H154.324Z" fill="#FC6583"/>
<path d="M136.672 27.5099V30.5304H127.821V27.5099H136.672ZM129.83 24.0364H133.907V37.553C133.907 37.9243 133.964 38.2138 134.079 38.4214C134.194 38.6228 134.353 38.7644 134.557 38.8462C134.768 38.928 135.01 38.9689 135.285 38.9689C135.476 38.9689 135.667 38.9531 135.859 38.9217C136.05 38.8839 136.197 38.8556 136.299 38.8367L136.94 41.8289C136.736 41.8918 136.449 41.9642 136.079 42.046C135.709 42.1341 135.259 42.1876 134.73 42.2065C133.747 42.2442 132.886 42.1152 132.146 41.8195C131.413 41.5237 130.842 41.0643 130.433 40.4414C130.025 39.8184 129.824 39.0318 129.83 38.0816V24.0364Z" fill="#9167BA"/>
<path d="M116.169 33.6263V42.0081H112.093V27.5098H115.977V30.0678H116.15C116.475 29.2246 117.02 28.5576 117.786 28.0667C118.551 27.5696 119.48 27.321 120.57 27.321C121.591 27.321 122.481 27.5413 123.24 27.9818C123.999 28.4223 124.589 29.0515 125.01 29.8696C125.431 30.6813 125.642 31.6504 125.642 32.7768V42.0081H121.566V33.4941C121.572 32.6069 121.342 31.9147 120.877 31.4176C120.411 30.9142 119.77 30.6624 118.953 30.6624C118.405 30.6624 117.92 30.7789 117.499 31.0117C117.084 31.2445 116.759 31.5843 116.523 32.0311C116.293 32.4716 116.175 33.0033 116.169 33.6263Z" fill="#9167BA"/>
<path d="M102.208 42.2913C100.722 42.2913 99.4361 41.9798 98.3516 41.3568C97.2736 40.7276 96.4411 39.8529 95.8542 38.7328C95.2673 37.6064 94.9739 36.3007 94.9739 34.8156C94.9739 33.318 95.2673 32.0091 95.8542 30.889C96.4411 29.7626 97.2736 28.8879 98.3516 28.2649C99.4361 27.6357 100.722 27.321 102.208 27.321C103.694 27.321 104.976 27.6357 106.054 28.2649C107.139 28.8879 107.975 29.7626 108.562 30.889C109.148 32.0091 109.442 33.318 109.442 34.8156C109.442 36.3007 109.148 37.6064 108.562 38.7328C107.975 39.8529 107.139 40.7276 106.054 41.3568C104.976 41.9798 103.694 42.2913 102.208 42.2913ZM102.227 39.1764C102.903 39.1764 103.468 38.9876 103.921 38.6101C104.374 38.2262 104.715 37.7039 104.945 37.0432C105.181 36.3825 105.299 35.6305 105.299 34.7873C105.299 33.9441 105.181 33.1921 104.945 32.5314C104.715 31.8706 104.374 31.3483 103.921 30.9645C103.468 30.5806 102.903 30.3887 102.227 30.3887C101.544 30.3887 100.97 30.5806 100.505 30.9645C100.045 31.3483 99.6977 31.8706 99.4616 32.5314C99.232 33.1921 99.1171 33.9441 99.1171 34.7873C99.1171 35.6305 99.232 36.3825 99.4616 37.0432C99.6977 37.7039 100.045 38.2262 100.505 38.6101C100.97 38.9876 101.544 39.1764 102.227 39.1764Z" fill="#9167BA"/>
<path d="M80.9604 42.0081V22.677H93.9357V26.0467H85.1037V30.653H93.0745V34.0227H85.1037V42.0081H80.9604Z" fill="#9167BA"/>
<path d="M15.789 9.83605C17.847 4.40374 24.0073 1.57075 29.5484 3.50836L62.8308 15.1465C68.3719 17.0841 71.1955 23.0586 69.1375 28.4909L57.1729 60.0727C55.1149 65.505 48.9546 68.338 43.4135 66.4003L10.1312 54.7622C4.59009 52.8246 1.76646 46.8501 3.82446 41.4178L15.789 9.83605Z" fill="#9167BA"/>
<path d="M3.72794 28.5847C1.66905 23.1527 4.4922 17.1792 10.0336 15.2424L43.3178 3.60933C48.8592 1.67256 55.0204 4.50598 57.0793 9.93796L69.049 41.5178C71.1079 46.9498 68.2848 52.9233 62.7434 54.8601L29.4592 66.4932C23.9178 68.43 17.7565 65.5965 15.6976 60.1646L3.72794 28.5847Z" fill="#FC6583"/>
<path d="M42.7948 43.0591C42.0539 43.0591 41.3986 42.9397 40.8291 42.7011C40.2646 42.4575 39.8211 42.0896 39.4985 41.5974C39.1759 41.1051 39.0146 40.4787 39.0146 39.718C39.0146 39.0916 39.123 38.5571 39.3397 38.1146C39.5565 37.6671 39.8589 37.3017 40.247 37.0183C40.6351 36.7349 41.0862 36.5187 41.6002 36.3695C42.1194 36.2203 42.6788 36.1234 43.2786 36.0786C43.9288 36.0289 44.4505 35.9693 44.8436 35.8997C45.2418 35.8251 45.529 35.7232 45.7055 35.5939C45.8819 35.4597 45.9701 35.2832 45.9701 35.0644V35.0346C45.9701 34.7363 45.8541 34.5076 45.6223 34.3485C45.3904 34.1894 45.0931 34.1098 44.7302 34.1098C44.332 34.1098 44.0069 34.1968 43.7549 34.3708C43.5079 34.5399 43.3593 34.8009 43.3089 35.1539H39.4683C39.5187 34.4578 39.743 33.8165 40.1411 33.2298C40.5443 32.6382 41.1315 32.1658 41.9027 31.8128C42.6738 31.4549 43.6365 31.2759 44.7907 31.2759C45.6223 31.2759 46.3682 31.3728 47.0285 31.5667C47.6887 31.7557 48.2507 32.0217 48.7144 32.3647C49.1781 32.7028 49.5309 33.1005 49.7729 33.5579C50.0198 34.0104 50.1433 34.5026 50.1433 35.0346V42.8801H46.2422V41.2692H46.1515C45.9197 41.6968 45.6374 42.0423 45.3048 42.3058C44.9771 42.5693 44.6017 42.7608 44.1783 42.8801C43.76 42.9994 43.2988 43.0591 42.7948 43.0591ZM44.1556 40.4638C44.4731 40.4638 44.7705 40.3991 45.0477 40.2699C45.33 40.1406 45.5593 39.9542 45.7357 39.7106C45.9121 39.4669 46.0003 39.1711 46.0003 38.8231V37.8685C45.8894 37.9132 45.771 37.9555 45.645 37.9953C45.524 38.0351 45.393 38.0723 45.2518 38.1071C45.1158 38.1419 44.9696 38.1743 44.8133 38.2041C44.6621 38.2339 44.5034 38.2613 44.337 38.2861C44.0145 38.3358 43.7499 38.4179 43.5432 38.5322C43.3416 38.6416 43.1904 38.7783 43.0896 38.9424C42.9938 39.1015 42.946 39.2805 42.946 39.4794C42.946 39.7976 43.0594 40.0412 43.2862 40.2102C43.513 40.3793 43.8028 40.4638 44.1556 40.4638Z" fill="white"/>
<path d="M26.5762 42.8802H22.04L27.1508 27.6068H32.8965L38.0072 42.8802H33.4711L30.0841 31.813H29.9632L26.5762 42.8802ZM25.7294 36.8544H34.2574V39.9568H25.7294V36.8544Z" fill="white"/>
</svg>
