<svg width="20" height="20" viewBox="0 0 20 20" fill="none" xmlns="http://www.w3.org/2000/svg">
<g clip-path="url(#clip0_142_210)">
<path d="M15.4167 0H4.58333C3.36816 0.00132347 2.20314 0.484634 1.34389 1.34389C0.484634 2.20314 0.00132347 3.36816 0 4.58333L0 15.4167C0.00132347 16.6318 0.484634 17.7969 1.34389 18.6561C2.20314 19.5154 3.36816 19.9987 4.58333 20H15.4167C16.6318 19.9987 17.7969 19.5154 18.6561 18.6561C19.5154 17.7969 19.9987 16.6318 20 15.4167V4.58333C19.9987 3.36816 19.5154 2.20314 18.6561 1.34389C17.7969 0.484634 16.6318 0.00132347 15.4167 0ZM18.3333 15.4167C18.3333 15.9692 17.8907 17.1093 17.5 17.5C17.1093 17.8907 15.9692 18.3333 15.4167 18.3333H4.58333C4.0308 18.3333 2.8907 17.8907 2.5 17.5C2.1093 17.1093 1.66667 15.9692 1.66667 15.4167V5C1.66667 4.44747 2.1093 2.8907 2.5 2.5C2.8907 2.1093 4.0308 1.66667 4.58333 1.66667H15.4167C15.9692 1.66667 17.1093 2.1093 17.5 2.5C17.8907 2.8907 18.3333 4.0308 18.3333 4.58333V15.4167Z" fill="#1F1D21"/>
</g>
<defs>
<clipPath id="clip0_142_210">
<rect width="20" height="20" fill="white"/>
</clipPath>
</defs>
</svg>
