<svg width="32" height="32" viewBox="0 0 32 32" fill="none" xmlns="http://www.w3.org/2000/svg">
<g clip-path="url(#clip0_142_324)">
<path d="M10.7743 7.34038L14.6755 3.43776L14.6662 24.0214C14.6662 24.7578 15.2632 25.3547 15.9995 25.3547C16.7359 25.3547 17.3328 24.7578 17.3328 24.0214L17.3421 3.46045L21.2248 7.34439C21.7544 7.85594 22.5985 7.84131 23.1101 7.31164C23.6091 6.79496 23.6091 5.97578 23.1101 5.4591L18.8288 1.17248C17.2672 -0.390119 14.7346 -0.390931 13.172 1.17067C13.1714 1.17129 13.1708 1.17186 13.1702 1.17248L8.88894 5.4551C8.37738 5.98478 8.39201 6.82883 8.92169 7.34038C9.43837 7.83944 10.2575 7.83944 10.7743 7.34038Z" fill="#FCF8FF"/>
<path d="M30.6661 21.333C29.9297 21.333 29.3328 21.9299 29.3328 22.6663V27.9995C29.3328 28.7359 28.7359 29.3328 27.9995 29.3328H3.99987C3.26351 29.3328 2.66658 28.7359 2.66658 27.9995V22.6663C2.66658 21.9299 2.06966 21.333 1.33329 21.333C0.596928 21.333 0 21.9299 0 22.6663V27.9995C0 30.2086 1.79085 31.9995 3.99994 31.9995H27.9996C30.2087 31.9995 31.9995 30.2086 31.9995 27.9995V22.6663C31.9994 21.9299 31.4024 21.333 30.6661 21.333Z" fill="#FCF8FF"/>
</g>
<defs>
<clipPath id="clip0_142_324">
<rect width="32" height="32" fill="white"/>
</clipPath>
</defs>
</svg>
